<?xml version="1.0" encoding="utf-8"?>
<!-- Generator: Adobe Illustrator 27.2.0, SVG Export Plug-In . SVG Version: 6.00 Build 0)  -->
<svg version="1.1" id="图层_1" xmlns="http://www.w3.org/2000/svg" xmlns:xlink="http://www.w3.org/1999/xlink" x="0px" y="0px"
	 viewBox="0 0 2345.31 530.49" style="enable-background:new 0 0 2345.31 530.49;" xml:space="preserve">
<style type="text/css">
	.st0{fill:#267F9C;}
</style>
<g>
	<g>
		<path class="st0" d="M836.34,247h-32.58c-26.65,0-48.34-21.68-48.34-48.34V73.2h27.31v125.46c0,11.59,9.43,21.03,21.03,21.03
			h32.58c11.59,0,21.03-9.43,21.03-21.03V73.2h27.31v125.46C884.67,225.32,862.99,247,836.34,247z"/>
		<g>
			<g>
				<polygon class="st0" points="1041.85,73.21 1041.85,247.01 1012.37,247.01 939.91,123.46 939.91,247.01 912.6,247.01 
					912.6,73.21 942.1,73.21 1014.55,196.74 1014.55,73.21 				"/>
			</g>
		</g>
		<rect x="1077.35" y="73.2" class="st0" width="27.31" height="173.8"/>
		<g>
			<polygon class="st0" points="1251.98,73.21 1251.98,100.51 1200.98,100.51 1200.98,247.01 1173.68,247.01 1173.68,100.51 
				1122.68,100.51 1122.68,73.21 			"/>
		</g>
		<g>
			<path class="st0" d="M1295.12,106.49v39.96h84.33v27.3h-84.33v39.98c0,3.3,2.68,5.98,5.98,5.98h95.26v27.3H1292.4
				c-13.58,0-24.59-11.01-24.59-24.59V97.78c0-13.57,11-24.57,24.57-24.57h103.97v27.3h-95.26
				C1297.79,100.51,1295.12,103.19,1295.12,106.49z"/>
		</g>
		<g>
			<path class="st0" d="M1493.12,247h-80.91V73.2h80.91c26.65,0,48.34,21.68,48.34,48.34v77.13
				C1541.46,225.32,1519.78,247,1493.12,247z M1439.52,219.7h53.61c11.59,0,21.03-9.43,21.03-21.03v-77.13
				c0-11.59-9.43-21.03-21.03-21.03h-53.61V219.7z"/>
		</g>
		<g>
			<path class="st0" d="M1662.21,106.49v39.96h84.33v27.3h-84.33v39.98c0,3.3,2.68,5.98,5.98,5.98h95.26v27.3H1659.5
				c-13.58,0-24.59-11.01-24.59-24.59V97.78c0-13.57,11-24.57,24.57-24.57h103.97v27.3h-95.26
				C1664.89,100.51,1662.21,103.19,1662.21,106.49z"/>
		</g>
		<g>
			<g>
				<path class="st0" d="M1867.58,73.21h-31.87l-62.89,173.79h29.04l12.74-35.2h74.1l12.74,35.2h29.02L1867.58,73.21z
					 M1824.48,184.5l27.17-75.09l27.17,75.09H1824.48z"/>
			</g>
		</g>
		<g>
			<path class="st0" d="M2026.36,173.75h17.96c11.15,0,20.19-9.04,20.19-20.19V93.41c0-11.15-9.04-20.19-20.19-20.19h-104.49v173.79
				h27.3v-73.25h25.91l51.16,73.25h33.31L2026.36,173.75z M1967.13,100.51h64.12c3.29,0,5.95,2.67,5.95,5.95v34.03
				c0,3.29-2.67,5.95-5.95,5.95h-64.12V100.51z"/>
		</g>
		<g>
			<polygon class="st0" points="2205.2,73.21 2205.2,100.51 2154.19,100.51 2154.19,247.01 2126.89,247.01 2126.89,100.51 
				2075.91,100.51 2075.91,73.21 			"/>
		</g>
		<g>
			<polygon class="st0" points="2345.31,73.21 2345.31,247.01 2318.01,247.01 2318.01,173.75 2243.33,173.75 2243.33,247.01 
				2216.03,247.01 2216.03,73.21 2243.33,73.21 2243.33,146.45 2318.01,146.45 2318.01,73.21 			"/>
		</g>
		<g>
			<path class="st0" d="M860.68,474.12h-77.4c-15.38,0-27.85-12.47-27.85-27.85V328.17c0-15.38,12.47-27.85,27.85-27.85h77.4
				c15.38,0,27.85,12.47,27.85,27.85v23.39h-27.31V340.1c0-6.86-5.62-12.48-12.48-12.48h-53.54c-6.86,0-12.48,5.62-12.48,12.48
				v94.23c0,6.86,5.62,12.48,12.48,12.48h53.54c6.86,0,12.48-5.62,12.48-12.48v-28.15h-33.07v-27.31h60.38v67.39
				C888.53,461.65,876.06,474.12,860.68,474.12z"/>
		</g>
		<path class="st0" d="M989.66,474.12h-4.56c-25.91,0-48.36-2.03-60.74-26.98c-5.64-11.37-8.5-28.28-8.5-50.27v-19.3
			c0-21.99,2.86-38.9,8.5-50.27c12.38-24.95,34.83-26.98,60.74-26.98h4.56c25.91,0,48.36,2.03,60.74,26.98
			c5.64,11.36,8.5,28.28,8.5,50.27v19.3c0,21.99-2.86,38.9-8.5,50.27C1038.02,472.09,1015.57,474.12,989.66,474.12z M985.1,327.63
			c-27.54,0-32.2,3.6-36.28,11.81c-3.59,7.24-5.65,21.14-5.65,38.13v19.3c0,16.99,2.06,30.89,5.65,38.13
			c4.07,8.21,8.74,11.81,36.28,11.81h4.56c27.54,0,32.2-3.6,36.28-11.81c3.59-7.24,5.65-21.14,5.65-38.13v-19.3
			c0-16.99-2.06-30.89-5.65-38.13c-4.07-8.21-8.74-11.81-36.28-11.81H985.1z"/>
		<g>
			<polygon class="st0" points="1066.78,300.32 1095.8,300.32 1140.43,437.91 1185.06,300.32 1214.09,300.32 1156.36,474.11 
				1124.5,474.11 			"/>
		</g>
		<g>
			<path class="st0" d="M1257.35,333.6v39.96h84.33v27.3h-84.33v39.98c0,3.3,2.68,5.98,5.98,5.98h95.26v27.3h-103.95
				c-13.58,0-24.59-11.01-24.59-24.59V324.89c0-13.57,11-24.57,24.57-24.57h103.97v27.3h-95.26
				C1260.03,327.62,1257.35,330.3,1257.35,333.6z"/>
		</g>
		<g>
			<path class="st0" d="M1470.45,400.88h17.92c11.16,0,20.21-9.08,20.21-20.21v-60.13c0-11.16-9.05-20.21-20.21-20.21h-104.49
				v173.79h27.3v-73.24h25.95l51.14,73.24h33.31L1470.45,400.88z M1411.19,327.62h64.14c3.29,0,5.95,2.67,5.95,5.95v34.03
				c0,3.29-2.67,5.95-5.95,5.95h-64.14V327.62z"/>
		</g>
		<g>
			<g>
				<polygon class="st0" points="1674.61,300.32 1674.61,474.11 1645.13,474.11 1572.67,350.57 1572.67,474.11 1545.36,474.11 
					1545.36,300.32 1574.86,300.32 1647.31,423.85 1647.31,300.32 				"/>
			</g>
		</g>
		<g>
			<polygon class="st0" points="1834.57,300.32 1786.54,382.23 1738.48,300.32 1709,300.32 1709,474.11 1736.32,474.11 
				1736.32,350.59 1770.7,409.2 1777.42,420.69 1795.65,420.69 1802.35,409.22 1836.75,350.59 1836.75,474.11 1864.05,474.11 
				1864.05,300.32 			"/>
		</g>
		<g>
			<path class="st0" d="M1923.34,333.6v39.96h84.33v27.3h-84.33v39.98c0,3.3,2.68,5.98,5.98,5.98h95.26v27.3h-103.95
				c-13.58,0-24.59-11.01-24.59-24.59V324.89c0-13.57,11-24.57,24.57-24.57h103.97v27.3h-95.26
				C1926.01,327.62,1923.34,330.3,1923.34,333.6z"/>
		</g>
		<g>
			<g>
				<polygon class="st0" points="2180.11,300.32 2180.11,474.11 2150.63,474.11 2078.17,350.57 2078.17,474.11 2050.86,474.11 
					2050.86,300.32 2080.36,300.32 2152.81,423.85 2152.81,300.32 				"/>
			</g>
		</g>
		<polygon class="st0" points="2345.31,300.32 2345.31,327.62 2288.28,327.62 2288.28,474.11 2260.98,474.11 2260.98,327.62 
			2203.96,327.62 2203.96,300.32 		"/>
	</g>
	<g id="主体">
		<g id="橄榄枝">
			<path class="st0" d="M506,482.47c0.3-0.07,0.71,0.26,0.85,0.43c-11.57,11.86-26.41,19.99-40.65,24.04
				c-10.58,3-21.22,3.51-32.1,2.28c-16.76-1.87-31.54-8.59-45.42-17.71c-8.3-5.46-16.52-11.05-24.74-16.64
				c-9.44-6.42-19.85-7.6-30.81-5.81c-5.93,0.65-1.42,3.51-0.52,3.95c14.72,7.21,28.58,15.85,41.53,25.84
				c8.8,6.46,24.49,21.59,24.49,21.59l-11.75,10.06c0,0-8.96-10.05-12.87-13.95c-25.76-26.83-48.57-38.63-53.63-41.54
				c-0.88-0.51-1.74-0.99-2.64-0.99c-0.9,0-1.75,0.49-2.65,0.99c-5.05,2.91-27.87,14.71-53.64,41.54
				c-3.89,3.9-12.86,13.95-12.86,13.95l-11.76-10.06c0,0,15.72-15.13,24.52-21.59c12.95-9.99,26.81-18.63,41.53-25.84
				c0.9-0.44,5.4-3.3-0.53-3.95c-10.96-1.79-21.37-0.61-30.81,5.81c-8.22,5.59-16.43,11.18-24.74,16.64
				c-13.87,9.12-28.65,15.84-45.42,17.71c-10.89,1.22-21.53,0.72-32.09-2.28c-14.25-4.05-29.13-12.23-40.7-24.1
				c0.14-0.17,0.58-0.44,0.88-0.37c0.98,0.44,1.6,0.75,2.55,1.25c17.2,8.84,35.32,9.87,53.95,6.29
				c12.72-2.44,24.54-7.54,36.37-12.59c8.49-3.62,16.87-7.61,25.6-10.49c22.64-7.47,45.58-7.38,68.62-1.54
				c0.38,0.1,0.77,0.15,1.17,0.2c0.4-0.04,0.79-0.1,1.17-0.2c23.04-5.83,45.97-5.92,68.61,1.54c8.73,2.88,17.12,6.87,25.6,10.49
				c11.83,5.05,23.66,10.16,36.37,12.59c18.64,3.58,36.76,2.56,53.96-6.29C504.41,483.22,505.02,482.91,506,482.47"/>
			<path class="st0" d="M560.34,433.13c-9.85,7.57-16.19,10.07-24.36,12.87c-12.29,4.21-25.52,5.06-38.36,5.74
				c-16.95,0.89-33.32,1.62-50.03,4.35c-0.09,0.01-0.18,0.02-0.28,0.03c-1.05,0.18-1.52-0.26-1.19-0.63
				c0.07-0.07,0.18-0.14,0.25-0.17c14.91-5.46,25.02-17.02,32.66-31.53c5.27-10.05,13.93-29.69,16.32-32.9
				c0.06-0.07,0-0.72-0.15-0.84c-1.14,0.36-17.54,14.34-24.98,21.24c-9.24,8.59-17.93,17.76-27.19,26.35
				c-14.44,13.8-35.2,19.84-42.72,21.8c-0.18,0.04-0.52,0.17-0.6,0.26c-0.22,0.29-0.33,0.55-0.37,0.68
				c-0.02,0.04,0.01,0.08,0.06,0.09c0.1,0.02,0.25,0.05,0.34,0.09c5.83,1.32,22.7,4.98,31.33,7.29c13.3,3.57,26.62,6.56,40.4,7.52
				c14.93,1.06,29.79-0.52,43.66-5.68c15.77-5.88,35.21-19.77,46.32-36.41c0.02-0.04,0.06-0.12,0.02-0.14
				C561,432.9,560.42,433.08,560.34,433.13"/>
			<path class="st0" d="M611.13,355.26c-0.46,0.6-8.77,11.47-29.13,25.41c-9.88,6.88-19.06,11.27-29.91,16.31
				c-13.55,6.29-25.22,12.03-36.75,21.57c-0.74,0.62-1.37,1.08-2.12,1.63c-0.41,0.3-0.81-0.2-0.36-0.72
				c0.56-0.65,17.51-18.01,22.61-54.8c1.78-12.84,2.03-26.7,6.19-39.07c0.12-0.39-0.12-0.81-0.25-1c-0.02-0.03-0.13,0.04-0.15,0.08
				c-12.45,14.24-22.82,36.39-27.66,50.25c-3.42,9.8-6.69,19.66-10.23,29.42c-4.81,13.25-11.08,25.67-21.27,35.75
				c-0.15,0.15-0.92,0.97-0.92,0.97s-0.13,0.23-0.18,0.6c0,0.04,0.06,0.12,0.08,0.11c1.47-0.25,2.42-0.39,3.35-0.6
				c11.35-2.34,22.62-5.06,34.03-6.95c19.08-3.19,35.73-9.96,51.1-21.76c15.42-11.83,28.46-25.61,36.98-43.25
				c2.21-4.58,4.29-9.08,5.66-14.09C611.91,355.01,611.44,355.03,611.13,355.26"/>
			<path class="st0" d="M633.38,267.73c-4.9,15.62-13.75,28.25-26.66,41.84c-10.12,10.46-29.62,30.22-38.61,43.92
				c-0.25,0.39-0.93,0.21-0.67-0.49c4.33-11.92,6.18-33.02,3.58-49.38c-2.22-13.94-8.33-29.17-9.84-46.23
				c-0.01-0.08,0.01-0.1-0.02-0.18c-0.09-0.22-0.46-0.74-0.72-0.76c-0.01,0.04-0.17,0.29-0.58,1.61
				c-2.92,9.93-6.58,22.34-7.19,33.88c-0.74,13.92,1.89,31.82,0.74,46.14c-1.33,16.55-2.46,32.92-10.05,47.93
				c-0.04,0.08-0.06,0.17-0.09,0.24c-0.15,0.41,0.26,1.15,0.26,1.15s0.07-0.02,0.1-0.03c6.09-3.89,23.42-14.12,34.85-21.75
				c14.28-9.53,26.9-20.87,36.77-35.11c12.34-17.8,19.5-39.25,19.13-61.1c-0.02-0.74-0.08-2.04-0.15-2.19
				C634.07,267.14,633.41,267.62,633.38,267.73"/>
			<path class="st0" d="M596.6,277.15c-0.06,0.21-0.23,0.3-0.3,0.32c-0.35,0.11-0.52-0.32-0.52-0.42c0.56-4.42,0.6-9.88,0.3-14.03
				c-1.19-16.36-11.06-29.9-19.71-43.51c-4.52-7.09-12.33-19.51-15.67-27.87c-0.02-0.07-0.68-0.47-0.88-0.4
				c-0.09,1.47,0.21,6.29,0.54,9.4c2.43,23.4,9.87,46.33,17.59,68.54c5.16,14.87,7.74,27.62,6.15,43.33
				c-0.17,1.31-0.21,1.46,0.33,1.85c0.02,0.01,0.06-0.04,0.07-0.02c5.27-7.6,15.55-18.29,21.87-25.98
				c6.85-8.35,41.38-47.71,24.37-102.54c-1.03-3.31-2.25-6.17-2.67-6.78c-0.28,0-0.73,0.68-0.78,0.86
				c0.11,39.45-18.97,56.38-26.94,83.37C598.84,268.4,597.63,273.18,596.6,277.15"/>
			<path class="st0" d="M566.85,154.55c-6.25-5.41-15.56-15.03-21.01-23.41c-0.04-0.08-0.09-0.12-0.13-0.17
				c-0.08-0.07-0.15-0.13-0.23-0.18c-0.34-0.22-0.78-0.24-0.89-0.18c-0.25-0.06-0.46-0.03-0.45,0.02
				c0.34,1.64,5.77,19.05,9.28,27.15c5.07,11.7,13.2,21.51,20.82,31.57c0.55,0.73,1.1,1.46,1.65,2.19
				c7.65,10.29,19.9,32.21,22.84,43.46c0.09,0.31,0.76,0.61,0.79,0.47c1.07-4.01,6.02-19.61,9.69-30.14
				c0.76-2.19,7.26-23.34,8.56-32.48c3.71-25.95-4.84-59.62-19.99-78.02c-0.24,0.08-0.46,0.75-0.42,0.9
				c0.29,0.86,0.49,1.53,0.74,2.39c0.33,1.14,0.64,2.27,0.92,3.43c3.95,16.91,2.62,28.84,0.68,43.21
				c-1.54,11.47-3.76,22.81-3.18,34.38c0.1,1.92,1.28,16.15,1.1,16.7c-0.2,0.63-0.77,0.14-0.84-0.19c-0.02-0.11-1.86-5.29-3.72-9.63
				c-0.77-1.89-1.54-3.67-2.19-4.96C584.8,169.03,576.93,162.77,566.85,154.55"/>
			<path class="st0" d="M550.16,49.5c4.85,4.74,8.64,10.02,11.27,16.25c4.18,9.79,5.4,24.53,8.11,35.68
				c1.64,6.76,2.66,11.56,5.03,19.23c0.22,0.67-0.47,0.99-0.84,0.34c-0.06-0.09-0.11-0.17-0.19-0.25
				c-7.81-10.58-17.49-17.18-31.3-25.9c-8.21-5.38-14.45-10.26-20.39-18.31c-1.03-1.39-2.08-2.74-3.12-4.1
				c-0.09-0.11-0.72-0.33-0.92-0.25c-0.02,0.31,0.11,0.93,0.23,1.71c1.78,8.89,7.73,25.35,17.93,35.12
				c7.35,7,15.61,13.23,23.44,19.72c13.98,11.7,24.19,24.33,27.46,28.51c0.06,0.06,0.15,0.17,0.15,0.17s0.63,0.4,0.62,0.18
				c-0.01-0.06-0.01-0.12-0.02-0.18c0,0,0.02,0,0.02-0.01c-0.2-2.05-0.28-5.3-0.28-9.15c0.01-8.56,0.4-20.02,0.77-27.89
				c0.15-3.19,0.25-6.4,0.24-9.58c-0.02-9.52-1.08-18.93-5.08-27.96c-6.5-14.62-16.17-26.26-30.63-33.45
				c-0.85-0.42-1.97-0.85-2.69-1.03c-0.03-0.01-0.14,0.45,0.07,1.04C550.06,49.42,550.1,49.45,550.16,49.5"/>
			<path class="st0" d="M490.26,21.84c8.37,7.44,15.09,16.26,21.37,25.48c6.03,8.84,11.99,17.81,20.18,24.91
				c5.41,5.46,21.17,17.71,25.11,20.77c0.07,0.06,0.12,0.11,0.18,0.13c0.12,0.05,0.33-0.02,0.33-0.02s-0.02-0.11-0.03-0.18
				c-0.83-4.52-7.94-37.73-28.73-54.16c-11.16-9.65-26.01-15.57-40.41-19.54c-0.14,0.28,0.02,0.99,0.11,0.98
				C489.07,20.81,489.57,21.23,490.26,21.84"/>
			<path class="st0" d="M163.93,475.39c13.79-0.96,27.11-3.95,40.41-7.52c8.64-2.3,25.5-5.97,31.33-7.29
				c0.09-0.03,0.24-0.07,0.33-0.09c0.06-0.01,0.08-0.04,0.07-0.09c-0.04-0.13-0.15-0.4-0.39-0.68c-0.08-0.1-0.42-0.22-0.6-0.26
				c-7.51-1.95-28.28-8.01-42.71-21.8c-9.25-8.59-17.94-17.76-27.19-26.35c-7.44-6.9-23.84-20.88-24.98-21.25
				c-0.15,0.13-0.21,0.78-0.15,0.85c2.39,3.21,11.04,22.85,16.32,32.9c7.62,14.51,17.74,26.07,32.66,31.53
				c0.08,0.02,0.19,0.1,0.24,0.17c0.34,0.36-0.13,0.81-1.18,0.63c-0.1-0.01-0.19-0.02-0.28-0.03c-16.71-2.72-33.07-3.45-50.04-4.35
				c-12.83-0.67-26.06-1.52-38.35-5.74c-8.17-2.8-14.51-5.3-24.37-12.87c-0.09-0.06-0.65-0.23-1.14,0.02c-0.02,0.02,0,0.1,0.03,0.14
				c11.11,16.63,30.55,30.53,46.32,36.41C134.15,474.87,149,476.44,163.93,475.39"/>
			<path class="st0" d="M150.97,441.17c0.95,0.21,1.9,0.34,3.36,0.6c0.02,0.01,0.08-0.07,0.08-0.11c-0.06-0.36-0.18-0.6-0.18-0.6
				s-0.77-0.82-0.93-0.97c-10.18-10.08-16.44-22.51-21.26-35.75c-3.54-9.76-6.82-19.62-10.23-29.42
				c-4.84-13.85-15.21-36-27.66-50.25c-0.02-0.03-0.13-0.11-0.15-0.08c-0.14,0.2-0.37,0.62-0.26,0.99
				c4.17,12.39,4.42,26.25,6.2,39.09c5.1,36.79,22.04,54.15,22.61,54.8c0.44,0.52,0.03,1.01-0.37,0.72
				c-0.74-0.55-1.37-1.01-2.12-1.63c-11.51-9.54-23.18-15.29-36.74-21.57c-10.85-5.04-20.03-9.43-29.91-16.31
				c-20.37-13.94-28.66-24.81-29.13-25.41c-0.31-0.23-0.77-0.25-1.06-0.14c1.38,5.02,3.45,9.52,5.66,14.09
				c8.51,17.65,21.56,31.42,36.97,43.25c15.37,11.8,32.03,18.57,51.11,21.76C128.36,436.11,139.63,438.85,150.97,441.17"/>
			<path class="st0" d="M56.9,365.63c11.44,7.63,28.77,17.86,34.86,21.75c0.03,0.01,0.1,0.03,0.1,0.03s0.42-0.74,0.26-1.15
				c-0.03-0.08-0.06-0.17-0.09-0.24c-7.59-15.01-8.71-31.38-10.06-47.93c-1.14-14.33,1.49-32.23,0.75-46.14
				c-0.62-11.54-4.28-23.95-7.2-33.88c-0.41-1.32-0.56-1.57-0.57-1.61c-0.25,0.02-0.63,0.54-0.72,0.76
				c-0.03,0.08-0.01,0.1-0.02,0.18c-1.51,17.06-7.63,32.29-9.84,46.23c-2.59,16.36-0.75,37.45,3.58,49.38
				c0.25,0.69-0.43,0.87-0.67,0.49c-9-13.7-28.49-33.46-38.61-43.92c-12.9-13.59-21.76-26.23-26.66-41.84
				c-0.03-0.11-0.71-0.58-0.86-0.51c-0.09,0.15-0.13,1.46-0.15,2.19c-0.36,21.85,6.79,43.3,19.12,61.1
				C30.02,344.76,42.63,356.1,56.9,365.63"/>
			<path class="st0" d="M50.91,314.35c0.01-0.02,0.03,0.03,0.06,0.02c0.55-0.4,0.51-0.54,0.34-1.85
				c-1.59-15.72,0.99-28.46,6.15-43.33c7.71-22.21,15.16-45.14,17.59-68.53c0.32-3.12,0.63-7.94,0.54-9.41
				c-0.2-0.08-0.86,0.33-0.89,0.41c-3.33,8.35-11.15,20.77-15.66,27.86c-8.65,13.61-18.52,27.15-19.71,43.51
				c-0.3,4.15-0.26,9.61,0.29,14.03c0.01,0.1-0.17,0.53-0.52,0.42c-0.06-0.02-0.23-0.11-0.29-0.32c-1.04-3.97-2.24-8.75-3.76-13.88
				C27.08,236.28,8,219.35,8.11,179.9c-0.06-0.18-0.51-0.86-0.78-0.86c-0.42,0.62-1.64,3.47-2.67,6.78
				c-17.02,54.83,17.51,94.19,24.36,102.54C35.35,296.06,45.63,306.75,50.91,314.35"/>
			<path class="st0" d="M26.19,205.35c3.67,10.54,8.62,26.14,9.69,30.16c0.02,0.12,0.71-0.18,0.79-0.49
				c2.94-11.25,15.19-33.17,22.84-43.46c0.55-0.74,1.1-1.47,1.64-2.19c7.63-10.07,15.76-19.87,20.82-31.57
				c3.51-8.11,8.93-25.51,9.29-27.15c0.01-0.06-0.2-0.08-0.45-0.03c-0.12-0.06-0.55-0.03-0.89,0.19c-0.08,0.04-0.15,0.11-0.23,0.18
				c-0.04,0.04-0.09,0.09-0.13,0.17c-5.45,8.38-14.76,18-21.01,23.41c-10.08,8.22-17.94,14.48-24.03,26.55
				c-0.65,1.29-1.42,3.08-2.19,4.95c-1.84,4.35-3.68,9.53-3.71,9.64c-0.07,0.33-0.64,0.82-0.85,0.19c-0.17-0.55,1-14.78,1.11-16.7
				c0.57-11.57-1.63-22.91-3.18-34.38c-1.94-14.37-3.26-26.3,0.67-43.21c0.28-1.15,0.6-2.29,0.93-3.43
				c0.25-0.86,0.45-1.53,0.74-2.39c0.03-0.15-0.18-0.83-0.43-0.9c-15.14,18.4-23.7,52.07-19.99,78.02
				C18.93,182.03,25.43,203.17,26.19,205.35"/>
			<path class="st0" d="M48.03,148.23c0,3.85-0.07,7.1-0.26,9.15c0,0.01,0.02,0.01,0.02,0.01c-0.01,0.06-0.01,0.12-0.02,0.18
				c-0.02,0.22,0.62-0.18,0.62-0.18s0.1-0.11,0.14-0.17c3.29-4.18,13.48-16.81,27.46-28.51c7.84-6.48,16.09-12.72,23.44-19.72
				c10.2-9.76,16.17-26.23,17.93-35.12c0.13-0.78,0.26-1.4,0.23-1.71c-0.19-0.08-0.82,0.14-0.9,0.25c-1.04,1.37-2.1,2.71-3.12,4.1
				c-5.94,8.05-12.2,12.93-20.39,18.31c-13.81,8.71-23.5,15.32-31.31,25.9c-0.06,0.09-0.12,0.17-0.18,0.25
				c-0.36,0.65-1.06,0.33-0.85-0.34c2.37-7.68,3.39-12.47,5.04-19.23c2.7-11.15,3.93-25.88,8.11-35.68
				c2.64-6.22,6.42-11.5,11.27-16.25c0.04-0.04,0.1-0.08,0.12-0.13c0.2-0.58,0.09-1.05,0.06-1.04c-0.72,0.18-1.85,0.61-2.69,1.03
				C68.27,56.54,58.6,68.18,52.11,82.8c-4,9.03-5.07,18.44-5.08,27.96c-0.01,3.19,0.09,6.4,0.24,9.58
				C47.64,128.23,48.03,139.68,48.03,148.23"/>
			<path class="st0" d="M77.97,93.1c0,0,0.21,0.08,0.33,0.02c0.06-0.02,0.11-0.09,0.18-0.13c3.94-3.05,19.69-15.31,25.1-20.77
				c8.21-7.11,14.16-16.07,20.19-24.91c6.28-9.22,12.99-18.03,21.37-25.48c0.68-0.61,1.19-1.03,1.89-1.64
				c0.09,0.02,0.25-0.7,0.11-0.97c-14.41,3.97-29.25,9.89-40.41,19.54C85.94,55.2,78.83,88.4,78,92.93
				C77.99,92.99,77.97,93.1,77.97,93.1"/>
		</g>
		<g id="地图_1_">
			<g>
				<path class="st0" d="M317.7,262.57c0.98,0,1.95-0.03,2.92-0.11v178.08h-5.85V262.46C315.74,262.53,316.72,262.57,317.7,262.57z"
					/>
				<path class="st0" d="M474.49,374.39l-4.14,4.14l-59.89-59.89l-4.13-4.14l-26.81-26.8l-30.96-30.96l-4.14-4.15
					c1.48-1.28,2.86-2.66,4.14-4.13l30.96,30.96l4.14,4.14l26.8,26.8l4.14,4.14l26.8,26.8l4.13,4.13l26.81,26.81L474.49,374.39z"/>
				<path class="st0" d="M536.51,218.81v5.85H358.43c0.08-0.97,0.11-1.94,0.11-2.92c0-0.98-0.04-1.96-0.11-2.93H536.51z"/>
				<path class="st0" d="M474.49,69.08l-2.15,2.15l-92.82,92.82l-26.82,26.82l-4.14,4.14c-1.28-1.47-2.66-2.85-4.14-4.13l4.14-4.14
					l26.82-26.82l94.97-94.97L474.49,69.08z"/>
				<path class="st0" d="M320.62,2.93v178.08c-0.97-0.08-1.94-0.11-2.92-0.11s-1.96,0.04-2.93,0.11V2.93H320.62z"/>
				<path class="st0" d="M286.84,186.74l4.14,4.14c-1.48,1.28-2.86,2.66-4.14,4.13l-4.14-4.14l-26.82-26.82l-4.14-4.14l-26.8-26.8
					l-4.14-4.14l-59.89-59.89l4.14-4.13l2.15,2.15L194,93.9l4.14,4.14l30.93,30.93l26.8,26.8l4.15,4.15L286.84,186.74z"/>
				<path class="st0" d="M276.97,218.81c-0.07,0.97-0.11,1.95-0.11,2.93c0,0.98,0.03,1.95,0.11,2.92H98.89v-5.85H276.97z"/>
				<path class="st0" d="M290.98,252.59l-4.14,4.15l-30.96,30.96l-26.81,26.8l-4.13,4.14l-26.8,26.8l-4.14,4.13l-26.8,26.81
					l-2.15,2.15l-4.14-4.14l28.96-28.96l4.13-4.13l26.8-26.8l66.04-66.04C288.12,249.93,289.5,251.31,290.98,252.59z"/>
				<g>
					<path class="st0" d="M474.52,64.91C432.67,23.05,376.97,0,317.7,0c-59.28,0-114.97,23.05-156.83,64.91
						c-41.85,41.86-64.9,97.55-64.9,156.83c0,59.27,23.05,114.97,64.9,156.82c41.86,41.86,97.55,64.91,156.83,64.91
						c59.27,0,114.97-23.05,156.82-64.91c41.86-41.85,64.91-97.55,64.91-156.82C539.43,162.46,516.38,106.77,474.52,64.91z
						 M472.34,372.24c-1.37,1.39-2.74,2.77-4.14,4.14c-38.27,37.25-90.26,60.46-147.58,61.22c-0.97,0.01-1.95,0.02-2.92,0.02
						c-0.98,0-1.95-0.01-2.93-0.02c-57.31-0.76-109.31-23.98-147.57-61.22c-1.4-1.37-2.78-2.75-4.14-4.14
						c-37.26-38.27-60.47-90.27-61.23-147.58c-0.01-0.97-0.02-1.95-0.02-2.92c0-0.98,0.01-1.95,0.02-2.93
						c0.76-57.31,23.98-109.31,61.23-147.58c1.36-1.39,2.74-2.77,4.14-4.13c38.26-37.25,90.26-60.47,147.57-61.23
						c0.98-0.01,1.95-0.02,2.93-0.02c0.97,0,1.95,0.01,2.92,0.02C377.94,6.63,429.93,29.84,468.2,67.1c1.4,1.36,2.77,2.74,4.14,4.13
						c37.24,38.27,60.46,90.27,61.22,147.58c0.01,0.98,0.02,1.95,0.02,2.93c0,0.97-0.01,1.95-0.02,2.92
						C532.8,281.97,509.59,333.97,472.34,372.24z"/>
					<path class="st0" d="M495.65,218.81c-0.76-46.86-19.73-89.38-50.12-120.77c-1.35-1.4-2.72-2.78-4.13-4.14
						c-31.39-30.39-73.92-49.36-120.78-50.12c-0.97-0.01-1.95-0.02-2.92-0.02c-0.98,0-1.95,0.01-2.93,0.02
						C267.91,44.54,225.39,63.51,194,93.9c-1.4,1.35-2.78,2.73-4.13,4.14c-30.39,31.39-49.36,73.91-50.12,120.77
						c-0.01,0.98-0.02,1.95-0.02,2.93c0,0.97,0.01,1.95,0.02,2.92c0.76,46.87,19.72,89.38,50.12,120.77
						c1.35,1.41,2.73,2.79,4.13,4.14c31.39,30.39,73.91,49.36,120.77,50.12c0.98,0.01,1.95,0.02,2.93,0.02
						c0.97,0,1.95-0.01,2.92-0.02c46.86-0.76,89.38-19.72,120.77-50.12c1.41-1.35,2.79-2.73,4.14-4.14
						c30.4-31.39,49.36-73.9,50.12-120.77c0.01-0.97,0.02-1.95,0.02-2.92C495.67,220.76,495.66,219.79,495.65,218.81z M441.4,341.3
						c-1.35,1.4-2.73,2.78-4.14,4.14c-30.33,29.33-71.38,47.64-116.64,48.39c-0.97,0.02-1.94,0.03-2.92,0.03s-1.96-0.01-2.93-0.03
						c-45.25-0.75-86.3-19.07-116.63-48.39c-1.41-1.36-2.79-2.74-4.14-4.14c-29.33-30.34-47.64-71.39-48.39-116.64
						c-0.02-0.97-0.03-1.94-0.03-2.92c0-0.98,0.01-1.96,0.03-2.93c0.75-45.24,19.06-86.31,48.39-116.64
						c1.35-1.4,2.73-2.78,4.14-4.13c30.33-29.34,71.38-47.65,116.63-48.4c0.97-0.02,1.95-0.03,2.93-0.03s1.95,0.01,2.92,0.03
						c45.26,0.75,86.31,19.06,116.64,48.4c1.41,1.35,2.79,2.73,4.14,4.13c29.33,30.33,47.64,71.4,48.39,116.64
						c0.02,0.97,0.03,1.95,0.03,2.93c0,0.98-0.01,1.95-0.03,2.92C489.04,269.91,470.73,310.96,441.4,341.3z"/>
					<path class="st0" d="M451.88,218.81c-0.75-34.8-14.81-66.38-37.28-89.84c-1.35-1.41-2.73-2.79-4.14-4.13
						c-23.47-22.48-55.04-36.53-89.84-37.28c-0.97-0.02-1.94-0.03-2.92-0.03s-1.96,0.01-2.93,0.03
						c-34.79,0.75-66.37,14.81-89.83,37.28c-1.41,1.34-2.79,2.72-4.14,4.13c-22.47,23.46-36.53,55.04-37.28,89.84
						c-0.02,0.97-0.03,1.95-0.03,2.93c0,0.98,0.01,1.95,0.03,2.92c0.75,34.8,14.81,66.38,37.28,89.84c1.35,1.41,2.73,2.79,4.14,4.14
						c23.46,22.47,55.04,36.53,89.83,37.28c0.97,0.02,1.95,0.03,2.93,0.03s1.95-0.01,2.92-0.03c34.8-0.75,66.37-14.8,89.84-37.28
						c1.41-1.35,2.79-2.73,4.14-4.14c22.47-23.46,36.53-55.04,37.28-89.84c0.02-0.97,0.03-1.94,0.03-2.92
						C451.91,220.76,451.9,219.78,451.88,218.81z M410.46,310.36c-1.34,1.41-2.72,2.79-4.13,4.14
						c-22.4,21.42-52.52,34.82-85.71,35.57c-0.97,0.02-1.94,0.03-2.92,0.03s-1.95-0.01-2.93-0.03c-33.18-0.75-63.3-14.16-85.7-35.57
						c-1.41-1.35-2.79-2.73-4.13-4.14c-21.42-22.41-34.82-52.52-35.57-85.7c-0.02-0.97-0.03-1.94-0.03-2.92
						c0-0.98,0.01-1.95,0.03-2.93c0.75-33.18,14.15-63.29,35.57-85.7c1.34-1.41,2.72-2.79,4.13-4.14
						c22.4-21.41,52.52-34.82,85.7-35.57c0.98-0.02,1.95-0.03,2.93-0.03s1.95,0.01,2.92,0.03c33.19,0.75,63.31,14.15,85.71,35.57
						c1.41,1.35,2.79,2.73,4.13,4.14c21.42,22.41,34.82,52.52,35.57,85.7c0.02,0.98,0.03,1.95,0.03,2.93c0,0.98-0.01,1.95-0.03,2.92
						C445.28,257.84,431.88,287.95,410.46,310.36z"/>
					<path class="st0" d="M408.1,218.81c-0.72-22.74-9.89-43.38-24.44-58.9c-1.33-1.42-2.71-2.8-4.13-4.14
						c-15.52-14.55-36.17-23.71-58.91-24.43c-0.97-0.03-1.94-0.05-2.92-0.05s-1.96,0.02-2.93,0.05
						c-22.74,0.72-43.38,9.88-58.9,24.43c-1.42,1.34-2.8,2.72-4.13,4.14c-14.55,15.52-23.72,36.16-24.44,58.9
						c-0.03,0.97-0.05,1.95-0.05,2.93c0,0.98,0.02,1.95,0.05,2.92c0.72,22.73,9.89,43.39,24.44,58.9c1.34,1.43,2.72,2.81,4.14,4.14
						c15.52,14.56,36.16,23.71,58.89,24.43c0.97,0.03,1.95,0.05,2.93,0.05s1.95-0.02,2.92-0.05c22.74-0.72,43.38-9.87,58.9-24.43
						c1.42-1.33,2.8-2.71,4.14-4.14c14.55-15.51,23.72-36.17,24.44-58.9c0.03-0.97,0.05-1.94,0.05-2.92
						C408.15,220.76,408.13,219.78,408.1,218.81z M379.52,279.42c-1.32,1.43-2.71,2.81-4.14,4.14c-14.45,13.5-33.64,22-54.76,22.71
						c-0.97,0.04-1.94,0.06-2.92,0.06s-1.96-0.02-2.93-0.06c-21.12-0.71-40.3-9.21-54.75-22.71c-1.43-1.33-2.82-2.71-4.14-4.14
						c-13.51-14.46-22.01-33.64-22.72-54.76c-0.04-0.97-0.06-1.94-0.06-2.92c0-0.98,0.02-1.96,0.06-2.93
						c0.71-21.13,9.22-40.3,22.72-54.76c1.33-1.43,2.71-2.81,4.14-4.13c14.45-13.5,33.63-22.01,54.75-22.72
						c0.97-0.04,1.95-0.06,2.93-0.06s1.95,0.02,2.92,0.06c21.12,0.71,40.31,9.21,54.76,22.72c1.43,1.32,2.81,2.7,4.14,4.13
						c13.5,14.46,22.01,33.63,22.72,54.76c0.04,0.97,0.06,1.95,0.06,2.93c0,0.98-0.02,1.95-0.06,2.92
						C401.53,245.78,393.03,264.96,379.52,279.42z"/>
					<path class="st0" d="M364.29,218.81c-0.66-10.67-4.93-20.39-11.59-27.94c-1.29-1.47-2.68-2.85-4.14-4.13
						c-7.56-6.67-17.27-10.94-27.94-11.6c-0.97-0.06-1.94-0.09-2.92-0.09s-1.96,0.03-2.93,0.1c-10.67,0.66-20.38,4.92-27.93,11.59
						c-1.46,1.28-2.85,2.66-4.14,4.13c-6.66,7.55-10.93,17.27-11.59,27.94c-0.07,0.97-0.1,1.95-0.1,2.93c0,0.98,0.03,1.95,0.09,2.92
						c0.66,10.68,4.93,20.39,11.6,27.94c1.29,1.47,2.68,2.85,4.14,4.14c7.55,6.67,17.26,10.93,27.93,11.58
						c0.97,0.07,1.95,0.1,2.93,0.1s1.95-0.03,2.92-0.09c10.67-0.66,20.38-4.92,27.94-11.59c1.46-1.29,2.85-2.67,4.14-4.14
						c6.67-7.55,10.94-17.26,11.6-27.94c0.06-0.97,0.09-1.94,0.09-2.92C364.39,220.76,364.36,219.78,364.29,218.81z M348.56,248.46
						c-1.28,1.47-2.66,2.85-4.14,4.13c-6.48,5.62-14.73,9.23-23.8,9.87c-0.97,0.08-1.94,0.11-2.92,0.11s-1.96-0.04-2.93-0.11
						c-9.06-0.64-17.32-4.25-23.79-9.87c-1.48-1.28-2.86-2.66-4.14-4.13c-5.62-6.49-9.23-14.74-9.87-23.8
						c-0.08-0.97-0.11-1.94-0.11-2.92c0-0.98,0.04-1.96,0.11-2.93c0.64-9.06,4.25-17.32,9.87-23.8c1.28-1.47,2.66-2.85,4.14-4.13
						c6.47-5.62,14.73-9.23,23.79-9.87c0.97-0.07,1.95-0.11,2.93-0.11s1.95,0.03,2.92,0.11c9.07,0.64,17.32,4.25,23.8,9.87
						c1.48,1.28,2.86,2.66,4.14,4.13c5.62,6.48,9.23,14.74,9.87,23.8c0.07,0.97,0.11,1.95,0.11,2.93c0,0.98-0.03,1.95-0.11,2.92
						C357.79,233.72,354.18,241.97,348.56,248.46z"/>
				</g>
			</g>
			<g id="地图">
				<path class="st0" d="M289.63,208.62c0,0-0.69-2.97-1.31-3.07c-0.36-0.05-1.48-0.09-1.77,0.59c-0.35,0.85,0.18,2.67,0.32,4.17
					c0.25,2.7,1.4,6.08,6.11,7.01s5.09,2.91,4.2,5.36c-0.72,1.98-0.03,2.99,0.27,3.31c0.06,0.06,0.05,0.15-0.03,0.2
					c-0.46,0.28-1.84,1.19-1.81,1.86c0.04,0.8,0,5.07,0.47,6s0.98,1.39,2.04,0.34c1.06-1.06,2.25,0.07,2.46,0.6
					c0.21,0.54-1.99,2.6-1.57,3.15c0.42,0.55,1.91,1.56,1.91,2.58c0,1.01,0.3,1.44,0.89,1.86c0.59,0.42,1.31,1.6,1.87,1.82
					c0.55,0.21,2.84,2.7,4.11,2.58c1.27-0.13,2.16,0.68,2.88,0.8c0.72,0.13,1.36-1.9,1.65-1.9s1.91,2.41,2.88,2.24
					c0.98-0.17-0.13-4.86-0.42-5.53c-0.3-0.68,1.31-1.44,2.33-0.76c1.02,0.68,0.72-2.58,1.19-2.75c0.47-0.17,2.49,1.84,2.73,1.79
					c0.25-0.05-0.15-3.06,0.2-3.04c0.34,0.02,4.8,2.18,5.01,4.13s-0.75,5.02,0,5.52c0.75,0.5,2.67,1.2,2,2.57
					c-0.31,0.64-0.68,1.07-1.17,2.29c-0.24,0.6,0.48,1.25,0.42,1.44c-0.15,0.47-0.96,0.73-1.23,1.21c-0.43,0.8,0.09,1.45,0.56,2
					c1.63,1.87,9.43,0.24,11.27,0.11c1.83-0.12,2.53,1.14,3.72,0.98s13.02-8.94,14.13-14s2.06-11.47,1.51-16.45
					s-1.83-5.77-3.25-6.41c-1.1-0.49-3.68-1.76-4.83-2.33c-0.2-0.1-0.17-0.39,0.05-0.45c0.68-0.18,1.84-0.44,2.96-0.54
					c1.2-0.11,2.24-0.58,2.77-0.86c0.21-0.11,0.29-0.38,0.17-0.58c-0.63-1.08-2.27-4.84-2.53-6.41c-0.16-0.94,0.14-1.52,0.46-2.11
					c0.34-0.62,0.01-1.4-0.67-1.59c-1.97-0.52-5.45-1.5-6.07-2.06c-0.87-0.79-4.13-0.16-4.76-0.71c-0.64-0.55-1.27-1.82-1.27-1.82
					s-2.06,0.87-3.18,0.47c-1.11-0.4-5.87-2.06-6.75-2.93c-0.87-0.87-2.22-1.11-3.33-0.95c-1.11,0.16-3.1,1.5-3.89,1.5
					c-0.79,0-3.49-1.03-4.37-0.95c-0.87,0.08-2.7,1.74-2.78,2.53c-0.08,0.79-1.27,3.56-1.51,3.64c-0.24,0.08,0.48,1.66-0.48,2.61
					c-0.95,0.95-2.06,1.11-2.46,3.24c-0.4,2.14-1.51,1.9-0.4,3.16s1.11,1.03,2.06,1.19c0.95,0.16,1.75,1.19,0.71,2.14
					c-1.03,0.95-1.91,1.66-1.75,2.85s0.64,3.08,0,3.01s-2.37-1.01-3.87,0.65c-1.49,1.67-2.57,2.02-4.36-0.6s-1.43-1.37-1.79-3.45
					c-0.36-2.08-0.6-2.32-2.39-3.99c-1.79-1.67-3.53-1.9-5.68-1.73c-2.15,0.18-3.94,0.12-3.58-1.73c0.36-1.85,0-1.67-0.3-1.79
					c-0.3-0.12-1.62-0.14-1.58-0.76C288.82,209.27,289.69,208.94,289.63,208.62z"/>
				<path class="st0" d="M318.79,290.01c0,0,6.34-1.12,7.75-0.67c1.41,0.45,2.07,1.12,2.07,1.12s-2.12,1.75-2.78,3
					c-0.66,1.26,0.19,2.74-2.13,4.44c-2.32,1.7-3.34,2.2-4.04,2.2s-1.94,8.79-2.12,8.74c-0.18-0.04-2.03-2.51-3.75-3
					c-1.26-0.36-2.92-1.06-3.72-1.41c-0.22-0.1-0.28-0.39-0.1-0.56c0.79-0.75,2.59-2.51,2.94-3.1c0.44-0.76,2.43-1.03,2.95-2.56
					C316.4,296.69,318.79,290.01,318.79,290.01z"/>
				<path class="st0" d="M393.46,264.85c0,0,0.77-0.85,1.37,1.28s1.71,3.93,2.14,4.78c0.43,0.85-1.11,0.26-0.94,2.82
					c0.17,2.56,1.62,5.21,0.43,6.66c-1.2,1.45-3.33,1.79-2.31,3.16s0.93,5.04,1.11,5.72s0.52,4.87-0.59,5.21s-2.05,1.2-1.2,2.73
					s-0.68,3.42-0.68,3.42s0.26,1.28,0,3.16s-1.62,2.39-2.82,3.16c-1.2,0.77-2.56,0.43-4.19,0.43c-1.62,0-1.97,0.92-3.16,0.08
					c-1.2-0.84,0.94-1.7,0.43-1.95c-0.51-0.26-2.48-0.34-2.82,0.94c-0.34,1.28-4.87,2.39-4.7,4.35c0.17,1.96,2.22,5.38,1.71,5.72
					c-0.51,0.34-5.3,0.6-5.98,0.51c-0.68-0.09-2.05-0.6-2.56-1.11c-0.51-0.51-1.8-2.56-5.3-1.2c-3.5,1.37-3.59-0.6-4.62-1.45
					c-1.03-0.85-4.45-0.77-6.07-0.77c-1.62,0-5.73-5.38-6.16-7s0-2.73,0.94-4.18c0.94-1.45-1.11-8.03,0.17-9.39
					c1.28-1.37,4.1-3.42,5.56-3.24c1.45,0.17,1.62-1.88,2.82-1.88c1.2,0,4.27,2.05,6.24,1.37c1.97-0.68,3.33-2.13,5.21-2.22
					c1.88-0.09,4.45,0.09,6.07-2.31s1.62-8.54,2.31-10.16c0.68-1.62,1.97-1.96,1.62-3.5s0.6-3.5,1.28-4.53
					c0.68-1.02,0.68-2.93,2.22-2.67s2.82,0.88,3.5,2.24C385.17,266.39,387.9,266.3,393.46,264.85z"/>
				<path class="st0" d="M431.89,288.74c0,0-1.88,0.88-1.88,2.1c0,1.21-1.71,1.05-1.71,1.05s-0.88-2.43-2.1-2.43
					c-1.22,0-2.32,1.66-2.98,1.93c-0.66,0.28-1.44-1.38-2.1-1.66s0.94-1.49,0.44-1.93c-0.5-0.44-0.72-0.77-1.77-1.6
					c-1.05-0.83-2.82-1.77-3.2-2.59c-0.04-0.08-0.08-0.18-0.11-0.29c-0.38-1.17,0.26-2.5,1.43-2.88c0.23-0.08,0.41-0.19,0.5-0.36
					c0.39-0.72,0.67-2.07,2.88-2.15c2.2-0.08-0.15-1.36-0.3-3.33c-0.15-1.98-0.15-3.57,1.22-4.18s2.89,0.08,3.65-0.38
					c0.76-0.46,3.12,0.99,3.42,3.11c0.3,2.12,0.99,2.96,0.91,3.34s0.68,1.52,0.38,3.11c-0.3,1.59,1.14,4.17,1.33,4.63
					C432.08,284.68,431.89,288.74,431.89,288.74z"/>
				<path class="st0" d="M194.41,182.28c0,0-1.28-1.81-2.94-2.26s-4.3-1.43-3.55-2.86c0.75-1.43,0.15-2.94-2.57-2.79
					s-5.21-0.3-4.08-2.03s0.53-1.13,0.53-1.13s-0.71-2.19-0.81-2.94c-0.1-0.75,0.4-2.64,0-3.47c-0.4-0.83-1.3-1.66-1.3-1.66
					s2.79-1.21,3.7-3.62s-0.3-4.37,0.23-5.58s2.26-1.28,3.09-4.82c0.83-3.54,3.24-4.15,4.15-6.56s3.24-1.73,3.55-2.79
					c0.3-1.06,3.32-0.98,3.92-1.96c0.6-0.98,4.3-0.98,4.68-2.41c0.38-1.43,1.06-3.39,0.6-3.77c-0.45-0.38,1.36,0,2.26-1.43
					c0.91-1.43,3.77-6.1,5.21-5.65c1.43,0.45,5.81,2.49,7.02,1.58c0,0,5.75-5.14,9.69-6.78c3.94-1.64,4.59-2.51,5.8-4.15
					c1.2-1.64,3.94-0.33,6.01,0s5.58,0.44,6.67,2.95s-3.28,2.84-3.17,5.79s3.41,2.73,3.35,4.91c-0.07,2.18,0.29,2.51,0,5.02
					s0.04,2.95-1.27,5.13s-2.19,1.64-2.08,3.6s-0.33,6.22,1.97,11.03c1.81,3.79,3.35,6.42,3.92,7.37c0.12,0.19,0.02,0.45-0.2,0.51
					c-1.14,0.32-4.21,1.21-5.36,1.73c-1.42,0.66,7.98,4.48,8.53,6.44c0.55,1.97-2.84,3.82-2.84,3.82s3.84,2.18,2.9,6.55
					c-0.93,4.37,3.11,1.31,4.53,1.86c1.42,0.55,2.08,2.84,4.26,2.73s2.73-0.33,3.28,0.66c0.55,0.98,0.22,1.64-1.64,1.42
					s-3.06,1.42-4.59,1.42c-1.53,0-2.73-1.86-4.59-1.75s-2.3,1.42-3.83,0.66c-1.53-0.76-2.84-2.73-7.11-4.04s-5.25-1.53-8.75-4.15
					s-3.83-4.04-6.89-5.35s-7.11-3.6-8.53-3.17s-2.3,3.82-3.06,4.04s-3.06,0.33-4.05,1.64s-1.53,2.84-3.06,3.39
					c-1.53,0.55-3.72,0.55-5.36,1.97c-1.64,1.42-1.42,2.84-2.3,2.95s-1.97-1.09-4.59,0.11
					C193.13,185.64,194.41,182.28,194.41,182.28z"/>
				<path class="st0" d="M147.51,120.06c0,0,0.06,7.71-2.22,10.67s-2.4,1.29-4.55,8.65c-2.15,7.35-4.68,13.68-5.31,17.55
					c-0.63,3.87-0.25,8.13-0.76,10.58s-1.52,6.32,0,5.68c1.52-0.65,3.92-6.06,5.31-7.23c1.39-1.16,2.78-5.16,2.28-6.71
					c-0.51-1.55-0.89-3.23,1.77-5.16s6.2-4.06,7.59-7.19c1.39-3.13,5.06-2.75,5.44-6.23c0.38-3.48,0-5.55,1.64-5.68
					s2.28,2.32,5.94,2.19c3.67-0.13,7.71-0.52,6.96,0.65s-5.44,2.58-7.46,3.87c-2.02,1.29-6.07,14.97-6.07,14.97
					s-4.12,2.32-5.29,2.97c-1.16,0.65,1.37,3.23,1.37,3.23s-1.39,5.03-0.63,6.97c0.76,1.94,2.53,4.39,1.52,5.03
					c-1.01,0.65-2.4,3.1-1.01,3.74s1.64,1.81,1.14,2.32c-0.51,0.52-0.89,1.68,0.13,2.45c1.01,0.77,1.01,1.81,0.25,2.06
					c-0.76,0.26-1.9,1.55-0.76,2.71c1.14,1.16,0.51,4-0.63,4.77c-1.14,0.77-0.89,3.35,0.38,4s4.55,1.68,4.81,3.87
					s-1.14,7.61,0.89,7.23c2.02-0.39,3.92-0.52,4.81-0.9s2.53,2.58,3.16,3.1c0.63,0.52-4.88,4.05-6.81,6.33
					c-1.96,2.32-1.67,11.23-1.29,13.82c0.38,2.58-0.87,6.3-0.49,10.17s1.9,9.16,5.31,8.77c3.41-0.39,2.53-0.35,5.82,0.02
					c3.29,0.37,4.17-0.92,3.67-2.86c-0.51-1.94-0.76-5.94-0.63-7.1c0.13-1.16,0.51-2.71-0.51-4.9s-4.43-6.19-4.17-7.35
					c0.25-1.16,7.34-3.23,7.34-4.13c0-0.9-1.01-1.55,0-2.58s1.2-5.23,2.21-5.23s1.71,1.59,3.6,1.59s6.08-4.88,6.08-4.88
					s-7.98,13.68-8.1,15.1c-0.13,1.42-0.76,8.77-1.77,10.58s-2.4,4.65-2.15,6.19c0.25,1.55,2.38,1.68,2.96,3.1
					c0.58,1.42-0.58,2.32,0,3.48c0.58,1.16-1.57,1.68-0.81,4.52c0.76,2.84,0,9.16,0,9.16s-5.19,4.26-5.31,7.48
					c-0.13,3.23,1.39,8.13,1.64,10.32s-4.05,5.03-2.4,5.55c1.64,0.52,6.2,2.97,6.2,4c0,1.03-3.16-0.26-4.43,3.35
					c-1.26,3.61-1.52,6.06,0.13,7.48c1.64,1.42,3.29,4.65,4.17,6.84s-2.78,0.65-2.02,2.97s1.77,5.55-0.76,6.32
					c-2.53,0.77-3.16,2.06-4.43,3.35c-1.26,1.29-2.78,1.68-1.01,3.74c1.77,2.06-2.66,4.65,0.63,10.06c3.29,5.42,4.93,3.48,5.31,5.03
					s-2.53,0.9,0.38,5.94c2.91,5.03,5.44,13.55,11.64,17.68s12.52,7.35,14.8,9.42s1.64,2.84,5.44,5.29s5.69,2.84,8.6,3.35
					c2.91,0.52,9.11,3.48,12.27,4.13c3.16,0.65,3.16,0.39,5.31,0.77c1.24,0.22,1.89,1.13,2.23,1.55c0.5,0.62,1.1,0.79,1.72,1.27
					l0.35,0.27c0,0-6.32-1.29-4.43,0c1.9,1.29,6.58,3.35,10.62,3.23c4.05-0.13,5.06-1.03,6.32,0.9c1.26,1.94,2.4,6.06,2.4,6.06
					s-7.46-1.94-8.73-0.9c-1.26,1.03,0.51,2.58,3.67,2.45c3.16-0.13,5.19,1.29,7.21,1.16c2.02-0.13,2.53,1.16,2.28,2.58
					c-0.25,1.42-1.39,0.9-3.16,1.68c-1.77,0.77-1.64-0.77-3.79,0.77c-2.15,1.55-5.82-1.42-8.85-2.32c-3.04-0.9-8.09-3.61-14.17-6.45
					s-25.29-15.35-29.22-18.45c-3.92-3.1-26.31-24.26-31.37-30.32s-7.21-11.1-8.98-10.58c-1.77,0.52-3.92,1.29-5.06-0.39
					c-1.14-1.68-3.92-5.03-4.17-6.19c-0.25-1.16-1.39-4.26-2.66-4.9c-1.26-0.65,1.26-1.68-0.89-3.61
					c-2.15-1.94-12.52-9.81-13.03-13.94c-0.51-4.13-3.16-12-3.67-15.87c-0.51-3.87-2.15-8-4.81-11.1c-2.66-3.1-6.96-5.94-6.07-16.64
					c0.89-10.71-5.44-18.19-5.19-21.29c0.25-3.1,4.55-5.16,4.3-9.68c-0.25-4.52-3.79-15.74-3.41-19.23
					c0.38-3.48,1.26-4.26,0.89-6.19c-0.38-1.94,1.14-1.42,1.39-6.19c0.25-4.77,5.69-10.42,4.93-15.66
					c-0.76-5.24-0.76-9.76,1.26-10.79c2.02-1.03,2.78-1.03,1.64-2.32c-1.14-1.29-2.02-3.61,0.51-6.84c2.53-3.23,3.41-2.19,2.78-7.1
					c-0.63-4.9-0.76-5.03,1.14-6.06c1.9-1.03,3.16-2.66,2.91-4.3c-0.25-1.64,2.02-2.54,2.02-4.22c0-1.68,0.25-6.32-1.26-7.35
					c-1.52-1.03-1.39-2.19,0.25-5.42s1.14-5.94,1.01-7.87c-0.13-1.94,0.38-1.94,2.15-1.55c1.77,0.39,1.39,5.94,4.3,4.65
					s3.98-5.95,3.85-7.5C143.71,120.91,147.54,119.02,147.51,120.06z"/>
				<path class="st0" d="M202.18,385.26c0,0,1.25-0.33,1.73,0.13c0.48,0.46,1.57,2.09,0.83,2S200.45,385.59,202.18,385.26z"/>
				<path class="st0" d="M444.76,347.22c0,0-6.86,5.25-7.04,7.24s-3.98,2.8-4.43,4.78s-1.99,2.17-1.81,3.07s0.78,1.26-0.01,1.44
					c-0.8,0.18-2.24,1.53-2.24,3.88s-3.7,3.16-2.44,4.69c1.27,1.53,2.62,2.53,1.72,3.07s-1.81,1.71-2.8,1.99s-4.16-1.62-4.16-1.62
					s1.79-0.42,1.27-2.26c-0.54-1.9-1.72-2.71-1.27-4.33c0.48-1.73,4.34-2.17,5.42-5.14c1.08-2.98,4.79-8.93,6.78-10.83
					C435.73,351.3,444.76,347.22,444.76,347.22z"/>
				<path class="st0" d="M385.56,156.63c0,0,0.64,2.5,3.28,1.64c2.64-0.86,2.07-1.5,4.5-1.07c2.43,0.43,2.86,1.43,1.86,1.71
					s-1.36,1.21-1.07,2c0.29,0.78,2.28,2.35,0.14,2.5c-2.14,0.14-4.85,0.36-5.78,0.64c-0.93,0.29-1.14,1.14-3.93,0.64
					c-2.78-0.5-2.78,3.07-4.57,2.85s-3.28-0.86-4.71-0.43c-1.43,0.43-3.36-1.14-3.64-3.28c-0.29-2.14-0.86-2.28,1.07-2.21
					c1.93,0.07,3.21-2.14,4-3.07S385.35,153.57,385.56,156.63z"/>
				<path class="st0" d="M444.82,267.78c-0.89,2.45-1.17,5.57-1.32,7.73c-0.3,4.36,6.85,4.52,10.02,1.03c3.14-3.52,3.91-3.52,4.91,0
					c1,3.49-0.88,4.07-2.54,6.34c-1.66,2.28-2.75,5.13-1.55,8.69c1.2,3.54-3.18,14.48-4.06,17.9c-0.88,3.43,0.28,5.32,0.33,8.36
					c0.05,3.04-0.12,6.11,2.71,5.64c3.38-0.54,6.56-0.66,6.56-0.66s2.67-0.34,3.43-1.4c0.7-1.03,5.79-4.2,6.11-4.39
					c-0.25,0.43-4.32,7.21-5.2,10.15c-0.89,3.04-3.54,5.65-6.71,7.74s-4.58-3.04-7.19-0.95c-2.61,2.09-9.29,11.21-2.87,10.28
					c6.41-0.96,6.88-0.5,4.5,3.47c-2.38,3.96-8.91,14.57-12.22,20.25c-3.3,5.69-4.42,8.54-3.05,10.07c1.35,1.51,5.92,3.22,7.22,2.09
					c1.31-1.14,2.05-1.14,3.18-1.53c1.14-0.39,2.27-0.39,2.42-2.61c0.15-2.26,2.05-2.13,3.95-2.5c1.86-0.39,2.99-1.16,5.01-4.57
					c2.02-3.41,8.79-6.45,10.29-6.92c1.5-0.48,4.51-0.48,4.8-7.33c0.26-6.82,9.34-7.21,12.39-15.75c3.08-8.54,5.74-8.17,10.7-16.71
					c4.95-8.54,9.81-11.58,7.99-19.37c-1.83-7.79,0.45-6.82,3.29-7.59c2.82-0.76,3.55-1.9,3.29-6.66
					c-0.23-3.88,0.36-9.37,1.69-14.33c0.25-0.77,0.51-1.57,0.8-2.37c2.27-6.3,2.46-7.41,2.46-10.28c0-2.86,0.37-10.43,2.26-17.46
					c1.9-7.03,1.33-9.31,3.22-19.38s-2.08-29.45-3.01-35.93c-0.96-6.45-2.46-19.18-2.46-22.02s-3.4-5.32-6.82-6.85
					c-3.4-1.51-2.26-3.03-1.87-6.84c0.37-3.81-0.39-7.22-0.77-10.84c-0.39-3.6,0.95-3.6,1.51-4.75c0.56-1.14-13.8-18.61-20.41-26.41
					c-6.62-7.79-7.76-9.11-7.37-13.87c0.39-4.75-12.28-13.48-23.06-21.1c-10.78-7.59-13.25-12.72-13.99-15.19
					c-0.77-2.48-1.71-4.57-4.73-4.94c-3.03-0.39-3.78-1.9-7.95-3.23c-4.15-1.33-4.33,1.33-6.23,1.71
					c-1.88,0.37-19.46-12.55-26.1-15.72c-6.6-3.18-13.41-3.29-18.89-4.59c-5.49-1.33-12.68-6.85-19.48-8.36
					c-6.81-1.54-7.95-2.48-11.35-1.33c-3.4,1.13-10.58,0.94-14.94,2.46c-4.33,1.51-3.77-2.67-6.42,0
					c-2.64,2.65-9.07,4.57-12.67,4.57c-3.59,0-4.35,3.23-8.5,2.27c-4.15-0.94-4.91,0.19-7.18,0c-2.27-0.18-6.05-1.71-4.92-0.74
					c1.14,0.94,2.83,2.85,5.3,2.45c2.46-0.37,7.76,2.67,6.62,4.95c-1.13,2.28-6.62,2.08-10.96,1.71c-4.35-0.37-5.3,1.14-9.26,1.51
					c-3.98,0.4-5.67,1.16-3.98,2.86c1.71,1.71-4.35,4.18,0,5.32c4.36,1.14,6.8,1.88,9.08,1.71c2.27-0.19,4.15-1.9,9.84-1.71
					c5.67,0.18,11.91-5.32,11.91-5.32c7.55-11.03,10.76-4,18.89-5.13c8.13-1.14,12.68,2.86,14.38,5.52
					c1.71,2.64,7.94,4.75,9.07,6.08c1.14,1.32,6.05,3.99,8.71,3.04c2.64-0.96-10.21-6.08-11.35-9.51c-1.13-3.43,2.46-2.86,4.35-2.86
					c1.9,0,5.49,4.18,6.62,5.89c1.14,1.73,8.13,2.86,10.03,4c1.88,1.14,0.56,3.23,1.13,5.89c0.56,2.65,1.53,2.09,2.65,3.99
					c1.13,1.91,3.21,2.09,3.96-0.37c0.77-2.48,1.51-1.33,6.81,1.71c5.28,3.04,9.64,3.43,10.77,0.95c1.14-2.48,4.8-2.46,8.76-1.14
					c0.99,0.33,3.04,1.02,3.67,1.35c1.93,0.98,2.54,2.12,3.55,4.64c1.06,2.64,5.96,3.71,7.83,4.09c1.9,0.39,1.33,3.25,2.65,4.76
					c1.33,1.51,3.03,0.94,2.64,3.22c-0.36,2.23,3.19,8.9,3.4,9.31l-25.31-21.09c0,0-6.63-1.14-10.03-1.9
					c-3.41-0.76-5.86,0-2.83,3.03c3.03,3.05,6.04,3.62,8.89,4.58c2.83,0.94,3.22,2.08,3.78,3.98c0.56,1.91,3.4,2.85,7.55,4.57
					c4.17,1.71,0.56,4.57-1.32,4.75c-1.88,0.19-7-1.71-10.01-5.32c-3.03-3.6-7.37-2.65-9.08-2.46c-1.69,0.19-8.13-7.61-10.21-10.26
					c-2.08-2.67-7.37-1.71-13.43-1.33c-6.04,0.39-11.72-4.55-18.52-8.17c-6.82-3.6-5.3-3.41-7-6.82c-1.69-3.44-16.26-3.62-26.1-3.81
					c-9.82-0.19-13.78,1.9-17.2,2.65c-3.41,0.76-8.13,1.33-13.23,3.6c-5.1,2.28-2.65,6.29-2.65,6.29s-10.77-1.14-17.58,14.06
					c-6.8,15.2,17.58,21.09,25.53,21.65c7.94,0.58,18.9-2.48,25.71-1.71c6.81,0.77,9.26,0.95,11.91,2.48
					c2.64,1.51-0.56,1.71-0.19,5.89c0.39,4.18,7.55,5.52,7.74,13.11c0.19,7.61-8.12,10.45-8.12,10.45s2.26,1.71,3.59,5.52
					c1.31,3.78,0.94,7.4,1.69,12.53c0.77,5.13-1.13,8.16-1.13,8.16s7.36,3.81,11.72,4.37c4.33,0.58,6.8,0,9.63-0.37
					c2.85-0.39,3.6-1.14,7.19-4c3.59-2.86,6.05-5.3,10.96-4.73c4.91,0.56,8.31-2.3,10.5-4c2.19-1.71,2.54-8.17,5.38-8.73
					c2.85-0.56,7,1.9,12.22,0.96c5.21-0.96,6.69-9.89,9.73-9.89c3.03,0,10.21,5.71,12.09,7.79c1.88,2.1,12.67,8.56,14.75,9.7
					c2.08,1.14,7.74,4.36,7.94,2.65c0.21-1.71-1.69-10.83-5.86-15.39c-4.15-4.55-4.72-8.73-4.35-11.39
					c0.39-2.67,1.32-4.37,2.27-4.37c0.95,0,2.85,5.89,3.03,8.93c0.19,3.04,2.83,7.4,4.91,9.88c2.08,2.48,10.96,21.28,12.67,25.85
					c1.69,4.57,1.69,11.6-0.37,14.06c-2.09,2.46-1.53,5.5,1.13,7.41c2.64,1.9-1.32,3.41-5.67,7.96c-4.35,4.58-9.86,8.54-10.26,10
					c-0.37,1.46,3.66,5.86,1.35,5.19c-3.26-0.95-4.55-0.87-4.9,0.74c-0.41,1.83,1.38,3.25,3.27,3.05c1.9-0.18,2.59,0.99,4.68,0.99
					c2.08,0-1.32-3.81,3.59-4.76c4.91-0.95,7.37-1.53,10.21,3.99s3.03,14.83,3.22,20.14c0.18,5.32-5.68,11.6-6.62,15.2
					c-0.95,3.62,0.19,5.13,0.19,5.13s-7-0.95-9.27-1.51c-2.27-0.58-4.35,1.14-7.37,1.9c-3.03,0.76,0.56-6.45,0.56-6.45
					s-1.32,1.13-3.78,2.27c-2.45,1.14-3.01,3.43-4.73,7.61c-1.69,4.18-8.98,5.1-8.98,5.1s1.25,0.21,3.12,1.35
					c1.9,1.14,1.9,2.09,4.68,1.32c2.78-0.77,6.67-3.41,8.57-4.55c1.9-1.14,1.54-2.92,5.9-3.12c0,0,3.77-0.12,3.57,0.42
					C449.55,259.23,445.76,263.86,444.82,267.78z M409.86,119.87c-0.29,2.67-0.39,5.13-0.39,5.13s-4.7-5.42-5.19-13.08
					c-0.5-7.68,0.48-14.17,1.18-16.92c0,0,4.59,5.2,4.88,12.79C410.64,115.36,410.16,117.23,409.86,119.87z"/>
			</g>
		</g>
	</g>
</g>
</svg>
